<?xml version="1.0" encoding="UTF-8" standalone="no"?>
<!-- Created with Inkscape (http://www.inkscape.org/) -->

<svg
   width="32.835464mm"
   height="39.815319mm"
   viewBox="0 0 32.835464 39.815319"
   version="1.1"
   id="svg5"
   sodipodi:docname="g7.svg"
   inkscape:export-filename="g7.png"
   inkscape:export-xdpi="96"
   inkscape:export-ydpi="96"
   inkscape:version="1.3.2 (091e20ef0f, 2023-11-25)"
   xmlns:inkscape="http://www.inkscape.org/namespaces/inkscape"
   xmlns:sodipodi="http://sodipodi.sourceforge.net/DTD/sodipodi-0.dtd"
   xmlns="http://www.w3.org/2000/svg"
   xmlns:svg="http://www.w3.org/2000/svg">
  <sodipodi:namedview
     id="namedview1"
     pagecolor="#ffffff"
     bordercolor="#000000"
     borderopacity="0.25"
     inkscape:showpageshadow="2"
     inkscape:pageopacity="0.0"
     inkscape:pagecheckerboard="0"
     inkscape:deskcolor="#d1d1d1"
     inkscape:document-units="mm"
     inkscape:zoom="1.744382"
     inkscape:cx="-26.370371"
     inkscape:cy="59.906604"
     inkscape:window-width="1366"
     inkscape:window-height="731"
     inkscape:window-x="0"
     inkscape:window-y="0"
     inkscape:window-maximized="1"
     inkscape:current-layer="g7" />
  <defs
     id="defs2" />
  <g
     id="layer1"
     transform="translate(-90.706438,-206.13029)">
    <g
       id="g7">
      <path
         style="opacity:0.8;fill:#024e00;fill-opacity:1;stroke:#ffffff;stroke-width:0.0459999"
         d="m 95.504859,219.01116 c 6.480931,-4.34093 17.293601,-4.85216 23.401191,0 4.57088,2.6778 5.49616,11.27761 3.90019,16.80085 -1.60267,3.90836 -4.7891,7.7316 -9.50048,9.4005 -5.25542,0.89292 -7.38282,0.98536 -12.0584,-0.4318 -3.458072,-1.04813 -8.830693,-4.86152 -9.842699,-8.56866 -1.552268,-5.6862 -0.742955,-13.95694 4.100198,-17.20089 z"
         id="path412"
         sodipodi:nodetypes="scccsss" />
      <path
         style="opacity:0.8;fill:#02fc1b;fill-opacity:1;stroke:#ffffff;stroke-width:0.0459999"
         d="m 98.662043,234.46043 c -1.592815,-0.55167 -1.558034,-2.70122 -1.290173,-4.36545 0.366466,-2.27686 1.521871,-4.29416 3.26618,-5.6934 1.92981,-1.54804 4.19469,-2.269 6.66742,-2.19025 2.41298,0.0769 5.03371,0.6691 6.90036,2.20012 1.64977,1.35313 3.0728,3.43201 3.54812,5.51209 0.52808,2.31098 0.0876,5.01043 -0.84799,7.18856 -0.92138,2.14513 -2.67439,3.79484 -4.80024,4.75986 -2.49069,1.13064 -6.77932,1.25734 -9.82491,-0.11318 -1.33548,-0.60097 -3.169941,-2.63164 -3.002119,-3.83319 0.292474,-2.094 2.606539,-3.12314 3.877829,-1.58178 1.77508,2.15217 3.42635,1.95235 5.71952,1.83102 3.88768,-0.2057 5.05619,-4.25168 4.8397,-6.42336 -0.32791,-2.28184 -1.70487,-3.76355 -3.0008,-4.30995 -1.7958,-0.75715 -5.42262,-1.73997 -7.22342,0.58717 -1.64181,2.12169 -1.24016,3.56778 -1.44221,5.28459 -0.1121,0.9525 -2.217967,1.55214 -3.387267,1.14715 z"
         id="path510"
         sodipodi:nodetypes="ssscssssssssccsss" />
      <path
         style="opacity:1;fill:#005d00;fill-opacity:1;stroke:#ffffff;stroke-width:0.0459999"
         d="m 93.004745,210.21072 c -2.241351,3.02765 -2.580498,8.46552 -0.100007,11.30057 1.769699,2.02265 5.629763,-0.26603 8.000412,1.00006 2.91829,1.55857 6.50033,7.50037 6.50033,7.50037 0,0 3.25397,-6.27724 6.10031,-8.10041 1.98209,-1.2696 5.46645,0.36661 6.90035,-1.50007 2.17521,-2.83173 1.76714,-7.94189 -0.50002,-10.70055 -3.09543,-3.76648 -9.32794,-3.65486 -14.20073,-3.50018 -4.43633,0.14082 -10.059716,0.4328 -12.700645,4.00021 z"
         id="path566" />
      <path
         style="opacity:0.8;fill:#00d300;stroke:#ffffff;stroke-width:0.0459999;fill-opacity:1"
         id="path626"
         d="m 99.870424,220.37006 a 4.2002139,3.800194 0 0 1 -1.177699,-5.24275 4.2002139,3.800194 0 0 1 5.783735,-1.1129 4.2002139,3.800194 0 0 1 1.28229,5.22262 4.2002139,3.800194 0 0 1 -5.760543,1.20735" />
      <path
         style="opacity:0.8;fill:#00d300;stroke:#ffffff;stroke-width:0.0459999;fill-opacity:1"
         id="path626-7"
         d="m 109.27088,220.07002 a 4.2002139,3.800194 0 0 1 -1.1777,-5.24275 4.2002139,3.800194 0 0 1 5.78373,-1.11289 4.2002139,3.800194 0 0 1 1.28229,5.22262 4.2002139,3.800194 0 0 1 -5.76054,1.20734" />
    </g>
  </g>
</svg>
